{
  "source": "C:\\Users\\Peter\\Desktop\\stuff\\MIUN\\quantitative_research\\video_compression\\videos\\BVI-HD\\BVI-HD_CDVL_videos\\ORIG\\CloudsZoom_1920x1080_60fps.mp4",
  "output": "C:\\Users\\Peter\\Desktop\\stuff\\MIUN\\quantitative_research\\video_compression\\compressed_videos\\BVI-HD\\h264\\8\\CloudsZoom_1920x1080_60fps_h264.mp4",
  "codec": "h264",
  "ok": "Input #0, mov,mp4,m4a,3gp,3g2,mj2, from 'C:\\Users\\Peter\\Desktop\\stuff\\MIUN\\quantitative_research\\video_compression\\videos\\BVI-HD\\BVI-HD_CDVL_videos\\ORIG\\CloudsZoom_1920x1080_60fps.mp4':\n  Metadata:\n    major_brand     : isom\n    minor_version   : 512\n    compatible_brands: isomiso2avc1mp41\n    encoder         : Lavf54.28.101\n  Duration: 00:00:05.00, start: 0.000000, bitrate: 32589 kb/s\n  Stream #0:0[0x1](und): Video: h264 (High 4:4:4 Predictive) (avc1 / 0x31637661), yuv420p(progressive), 1920x1080, 32586 kb/s, 60 fps, 60 tbr, 60 tbn (default)\n    Metadata:\n      handler_name    : VideoHandler\n      vendor_id       : [0][0][0][0]\n[out#0/mp4 @ 00000262522e9a80] Codec AVOption b:a (set bitrate (in bits/s)) has not been used for any stream. The most likely reason is either wrong type (e.g. a video option with no video streams) or that it is a private option of some decoder which was not actually used for any stream.\nStream mapping:\n  Stream #0:0 -> #0:0 (h264 (native) -> h264 (libx264))\nPress [q] to stop, [?] for help\n[libx264 @ 00000262540f0b40] using cpu capabilities: MMX2 SSE2Fast SSSE3 SSE4.2 AVX FMA3 BMI2 AVX2\n[libx264 @ 00000262540f0b40] profile High, level 5.0, 4:2:0, 8-bit\n[libx264 @ 00000262540f0b40] 264 - core 165 r3222 b35605a - H.264/MPEG-4 AVC codec - Copyleft 2003-2025 - http://www.videolan.org/x264.html - options: cabac=1 ref=5 deblock=1:0:0 analyse=0x3:0x113 me=hex subme=8 psy=1 psy_rd=1.00:0.00 mixed_ref=1 me_range=16 chroma_me=1 trellis=2 8x8dct=1 cqm=0 deadzone=21,11 fast_pskip=1 chroma_qp_offset=-2 threads=18 lookahead_threads=3 sliced_threads=0 nr=0 decimate=1 interlaced=0 bluray_compat=0 constrained_intra=0 bframes=3 b_pyramid=2 b_adapt=1 b_bias=0 direct=3 weightb=1 open_gop=0 weightp=2 keyint=250 keyint_min=25 scenecut=40 intra_refresh=0 rc_lookahead=50 rc=cbr mbtree=1 bitrate=8000 ratetol=1.0 qcomp=0.60 qpmin=0 qpmax=69 qpstep=4 vbv_maxrate=8000 vbv_bufsize=8000 nal_hrd=none filler=0 ip_ratio=1.40 aq=1:1.00\nOutput #0, mp4, to 'C:\\Users\\Peter\\Desktop\\stuff\\MIUN\\quantitative_research\\video_compression\\compressed_videos\\BVI-HD\\h264\\8\\CloudsZoom_1920x1080_60fps_h264.mp4':\n  Metadata:\n    major_brand     : isom\n    minor_version   : 512\n    compatible_brands: isomiso2avc1mp41\n    encoder         : Lavf62.3.100\n  Stream #0:0(und): Video: h264 (avc1 / 0x31637661), yuv420p(tv, progressive), 1920x1080, q=2-31, 8000 kb/s, 60 fps, 15360 tbn (default)\n    Metadata:\n      encoder         : Lavc62.11.100 libx264\n      handler_name    : VideoHandler\n      vendor_id       : [0][0][0][0]\n    Side data:\n      cpb: bitrate max/min/avg: 8000000/0/8000000 buffer size: 8000000 vbv_delay: N/A\nframe=    0 fps=0.0 q=0.0 size=       0KiB time=N/A bitrate=N/A speed=N/A elapsed=0:00:00.52    \nframe=   20 fps= 18 q=21.0 size=     256KiB time=00:00:00.21 bitrate=9680.9kbits/s speed=0.191x elapsed=0:00:01.13    \nframe=   49 fps= 28 q=20.0 size=     512KiB time=00:00:00.73 bitrate=5720.0kbits/s speed=0.421x elapsed=0:00:01.74    \nframe=   69 fps= 29 q=20.0 size=     768KiB time=00:00:01.06 bitrate=5898.6kbits/s speed=0.455x elapsed=0:00:02.34    \nframe=   85 fps= 29 q=20.0 size=    1024KiB time=00:00:01.38 bitrate=6064.3kbits/s speed=0.472x elapsed=0:00:02.93    \nframe=  113 fps= 33 q=20.0 size=    1536KiB time=00:00:01.80 bitrate=6990.7kbits/s speed=0.518x elapsed=0:00:03.47    \nframe=  134 fps= 33 q=20.0 size=    2048KiB time=00:00:02.20 bitrate=7626.2kbits/s speed=0.542x elapsed=0:00:04.05    \nframe=  165 fps= 36 q=20.0 size=    2560KiB time=00:00:02.66 bitrate=7864.5kbits/s speed=0.582x elapsed=0:00:04.58    \nframe=  189 fps= 37 q=20.0 size=    2816KiB time=00:00:03.01 bitrate=7647.2kbits/s speed=0.589x elapsed=0:00:05.12    \nframe=  210 fps= 37 q=20.0 size=    3072KiB time=00:00:03.45 bitrate=7294.6kbits/s speed=0.601x elapsed=0:00:05.73    \nframe=  235 fps= 37 q=20.0 size=    3584KiB time=00:00:03.83 bitrate=7659.3kbits/s speed=0.607x elapsed=0:00:06.31    \nframe=  258 fps= 37 q=20.0 size=    4096KiB time=00:00:04.21 bitrate=7957.7kbits/s speed=0.609x elapsed=0:00:06.92    \nframe=  287 fps= 38 q=-1.0 size=    4352KiB time=00:00:04.65 bitrate=7667.1kbits/s speed=0.62x elapsed=0:00:07.50    \n[mp4 @ 00000262522f1180] Starting second pass: moving the moov atom to the beginning of the file\n[out#0/mp4 @ 00000262522e9a80] video:4824KiB audio:0KiB subtitle:0KiB other streams:0KiB global headers:0KiB muxing overhead: 0.091484%\nframe=  300 fps= 39 q=-1.0 Lsize=    4828KiB time=00:00:04.96 bitrate=7963.8kbits/s speed=0.642x elapsed=0:00:07.73    \n[libx264 @ 00000262540f0b40] frame I:2     Avg QP: 6.72  size: 45120\n[libx264 @ 00000262540f0b40] frame P:76    Avg QP:10.11  size: 24872\n[libx264 @ 00000262540f0b40] frame B:222   Avg QP:11.98  size: 13326\n[libx264 @ 00000262540f0b40] consecutive B-frames:  1.3%  0.0%  0.0% 98.7%\n[libx264 @ 00000262540f0b40] mb I  I16..4: 21.1% 77.9%  1.0%\n[libx264 @ 00000262540f0b40] mb P  I16..4:  2.8% 20.3%  0.1%  P16..4: 33.0% 13.6%  6.8%  0.0%  0.0%    skip:23.4%\n[libx264 @ 00000262540f0b40] mb B  I16..4:  0.3%  2.7%  0.0%  B16..8: 38.0% 15.7%  2.0%  direct: 7.9%  skip:33.3%  L0:59.9% L1:38.7% BI: 1.4%\n[libx264 @ 00000262540f0b40] 8x8 transform intra:87.3% inter:82.1%\n[libx264 @ 00000262540f0b40] direct mvs  spatial:95.5% temporal:4.5%\n[libx264 @ 00000262540f0b40] coded y,uvDC,uvAC intra: 31.6% 21.3% 7.3% inter: 7.1% 14.7% 1.0%\n[libx264 @ 00000262540f0b40] i16 v,h,dc,p: 50% 19% 30%  1%\n[libx264 @ 00000262540f0b40] i8 v,h,dc,ddl,ddr,vr,hd,vl,hu: 14% 14% 69%  0%  0%  0%  1%  0%  1%\n[libx264 @ 00000262540f0b40] i4 v,h,dc,ddl,ddr,vr,hd,vl,hu: 24% 26% 15%  5%  8%  7%  8%  3%  4%\n[libx264 @ 00000262540f0b40] i8c dc,h,v,p: 69% 18% 11%  2%\n[libx264 @ 00000262540f0b40] Weighted P-Frames: Y:0.0% UV:0.0%\n[libx264 @ 00000262540f0b40] ref P L0: 44.6%  0.7% 30.0% 14.7% 10.0%\n[libx264 @ 00000262540f0b40] ref B L0: 58.2% 29.4%  9.7%  2.7%\n[libx264 @ 00000262540f0b40] ref B L1: 87.2% 12.8%\n[libx264 @ 00000262540f0b40] kb/s:7902.22\n",
  "seconds": 7.971370697021484,
  "probe_out": {}
}